<svg xmlns="http://www.w3.org/2000/svg" width="30" height="28" fill="none"><path stroke="#000" stroke-width="2" d="M19.27 9.513a4.808 4.808 0 0 1-4.809 4.807h-3.205m8.013-4.807V6.5a5 5 0 0 0-5-5H6a5 5 0 0 0-5 5v4.754A2.77 2.77 0 0 0 3.404 14a2.77 2.77 0 0 1 2.404 2.746v1.01c0 .166.191.258.32.154l3.987-3.189c.324-.26.726-.4 1.141-.4m8.013-4.808h4.616a5 5 0 0 1 5 5v4.819a3.27 3.27 0 0 1-2.63 3.207 3.27 3.27 0 0 0-2.575 2.621l-.152.836M11.255 14.321v3.653a5 5 0 0 0 5 5h.963a5 5 0 0 1 3.09 1.069l2.486 1.953m0 0 .238.188a.308.308 0 0 0 .494-.188m-.732 0h.732"/></svg>