<svg xmlns="http://www.w3.org/2000/svg" width="27" height="19" fill="none"><path stroke="#000" stroke-width="1.42" d="M26.563 15.632h-1.667m-7.778 0v-5.556m0 5.556H9.34m7.778 0h1.945M17.117 5.076V2.607a1.42 1.42 0 0 0-1.42-1.42H2.982a1.42 1.42 0 0 0-1.42 1.42v11.605c0 .784.636 1.42 1.42 1.42H4.34M17.118 5.076h3.195c.438 0 .851.203 1.12.548l3.463 4.452m-7.778-5v5m7.778 5.556h-1.111m1.11 0v-5.556m0 0h-7.777"/><path stroke="#000" stroke-width="1.42" d="M9.742 15.632a2.624 2.624 0 1 1-5.248 0 2.624 2.624 0 0 1 5.248 0ZM24.186 15.632a2.624 2.624 0 1 1-5.247 0 2.624 2.624 0 0 1 5.247 0Z"/></svg>