<svg xmlns="http://www.w3.org/2000/svg" width="80" height="80" fill="none"><rect width="80" height="80" fill="url(#a)" rx="40"/><path fill="#fff" d="M33.343 40.102a6.671 6.671 0 1 1 13.34 0 6.671 6.671 0 1 1-13.34 0Zm-3.607 0c0 5.678 4.6 10.28 10.276 10.28 5.675 0 10.276-4.602 10.276-10.28 0-5.676-4.6-10.278-10.276-10.278-5.675 0-10.276 4.601-10.276 10.278Zm18.557-10.686a2.403 2.403 0 0 0 4.1 1.7 2.403 2.403 0 0 0-1.697-4.101h-.001a2.402 2.402 0 0 0-2.402 2.401Zm-16.366 26.98c-1.95-.088-3.011-.413-3.716-.688-.934-.364-1.601-.797-2.302-1.497-.7-.7-1.135-1.367-1.497-2.301-.274-.705-.6-1.766-.688-3.718-.097-2.11-.117-2.744-.117-8.09 0-5.345.021-5.977.117-8.089.089-1.952.416-3.01.688-3.717.364-.935.797-1.602 1.497-2.303.7-.7 1.366-1.135 2.302-1.497.704-.275 1.765-.6 3.716-.689 2.11-.097 2.743-.116 8.085-.116 5.342 0 5.976.02 8.087.116 1.952.09 3.01.417 3.717.689a6.2 6.2 0 0 1 2.301 1.497c.701.7 1.134 1.368 1.497 2.303.275.704.6 1.765.689 3.717.097 2.112.116 2.744.116 8.09 0 5.345-.02 5.977-.116 8.09-.089 1.95-.416 3.012-.689 3.717-.363.934-.796 1.601-1.496 2.3-.7.7-1.368 1.134-2.302 1.498-.705.275-1.766.6-3.717.689-2.11.096-2.743.116-8.087.116-5.344 0-5.976-.02-8.085-.116Zm-.165-36.19c-2.13.097-3.587.435-4.858.93a9.815 9.815 0 0 0-3.545 2.309 9.78 9.78 0 0 0-2.308 3.546c-.495 1.272-.833 2.728-.93 4.859-.098 2.134-.12 2.816-.12 8.252 0 5.437.022 6.119.12 8.253.097 2.132.435 3.587.93 4.86a9.786 9.786 0 0 0 2.308 3.545 9.84 9.84 0 0 0 3.545 2.31c1.274.494 2.727.832 4.858.929 2.135.097 2.816.121 8.25.121 5.435 0 6.117-.022 8.25-.121 2.131-.097 3.586-.435 4.858-.93a9.84 9.84 0 0 0 3.545-2.309c1.114-1.112 1.796-2.23 2.308-3.546.495-1.272.834-2.728.93-4.859.097-2.136.12-2.816.12-8.252 0-5.437-.023-6.12-.12-8.253-.097-2.132-.435-3.588-.93-4.86a9.843 9.843 0 0 0-2.308-3.545 9.791 9.791 0 0 0-3.543-2.31c-1.274-.494-2.729-.834-4.858-.93-2.134-.096-2.816-.12-8.25-.12-5.435 0-6.117.022-8.252.12Z"/><defs><linearGradient id="a" x1="78.462" x2="-1.538" y1="80" y2="0" gradientUnits="userSpaceOnUse"><stop stop-color="#FBE18A"/><stop offset=".21" stop-color="#FCBB45"/><stop offset=".38" stop-color="#F75274"/><stop offset=".52" stop-color="#D53692"/><stop offset=".74" stop-color="#8F39CE"/><stop offset="1" stop-color="#5B4FE9"/></linearGradient></defs></svg>