<svg xmlns="http://www.w3.org/2000/svg" id="Capa_1" viewBox="0 0 150 150"><defs><style>.cls-2{stroke-width:0;fill:#fff}</style></defs><circle cx="75" cy="75" r="74.5" style="stroke-width:0"/><path d="M117.5 100.04V53.01L91.47 72.92l25.86 27.83.17-.71zM33.56 47.53l41.43 31.54 41.35-31.65a4.65 4.65 0 0 0-3.26-1.32H36.91c-1.37 0-2.54.58-3.35 1.42ZM32.5 53.18v46.86l.2.85 25.89-27.86L32.5 53.18z" class="cls-2"/><path d="M114.97 103.48 88.6 75.11l-12.04 9.23-1.56.52-1.56-.52-11.98-9.12-26.35 28.33 1.8.34h76.17l1.89-.41z" class="cls-2"/></svg>