<svg xmlns="http://www.w3.org/2000/svg" width="80" height="80" fill="none"><rect width="80" height="80" fill="#3CF" rx="40"/><path fill="#fff" d="M59.855 27.335c-1.32.569-2.71.965-4.132 1.178.665-.114 1.643-1.312 2.033-1.796a7.607 7.607 0 0 0 1.33-2.462c0-.067.066-.162 0-.21a.228.228 0 0 0-.219 0 20.888 20.888 0 0 1-4.891 1.902.343.343 0 0 1-.342-.086 4.747 4.747 0 0 0-.428-.447 8.907 8.907 0 0 0-2.336-1.511 8.208 8.208 0 0 0-3.638-.6 8.798 8.798 0 0 0-3.457.951 8.96 8.96 0 0 0-2.736 2.32 8.787 8.787 0 0 0-1.662 3.327 9.144 9.144 0 0 0-.086 3.518c0 .2 0 .228-.17.2-6.773-.999-12.33-3.404-16.87-8.566-.199-.228-.303-.228-.465 0-1.976 3.004-1.016 7.757 1.453 10.106.333.313.675.618 1.036.903a8.476 8.476 0 0 1-3.249-.903c-.19-.124-.294-.057-.304.17a5.609 5.609 0 0 0 0 .951 8.636 8.636 0 0 0 5.32 6.883c.345.148.704.26 1.073.333a9.71 9.71 0 0 1-3.182.095c-.228-.047-.314.076-.228.295 1.396 3.802 4.426 4.962 6.649 5.609.303.047.607.047.95.123l-.058.057c-.655 1.198-3.305 2.006-4.52 2.425a16.238 16.238 0 0 1-6.935.893c-.37-.057-.456-.047-.55 0-.096.048 0 .152.104.247.475.314.95.59 1.444.856a22.73 22.73 0 0 0 4.635 1.901c8.34 2.3 17.724.609 23.983-5.618 4.92-4.887 6.649-11.627 6.649-18.377 0-.256.313-.408.494-.542a16.312 16.312 0 0 0 3.258-3.403.998.998 0 0 0 .227-.684c0-.143 0-.114-.18-.038Z"/></svg>