<svg xmlns="http://www.w3.org/2000/svg" id="Capa_1" viewBox="0 0 150 150"><defs><style>.cls-2{stroke-width:0;fill:#fff}</style></defs><circle cx="75" cy="75" r="74.5" style="stroke-width:0"/><path d="M90.49 55.37c0-8.49-6.91-15.4-15.4-15.4s-15.4 6.91-15.4 15.4 6.91 15.39 15.4 15.39 15.4-6.91 15.4-15.39Z" class="cls-2"/><path d="M110 54.85c0-17.82-18.9-33.33-34.99-33.33S40 37.02 40 54.85s35.01 73.63 35.01 73.63S110 71.99 110 54.85Zm-62.38.52c0-15.15 12.33-27.48 27.48-27.48s27.48 12.33 27.48 27.48S90.25 82.85 75.1 82.85 47.62 70.52 47.62 55.37Z" class="cls-2"/></svg>